<?xml version="1.0" standalone="no"?>
<!DOCTYPE svg PUBLIC "-//W3C//DTD SVG 20010904//EN"
 "http://www.w3.org/TR/2001/REC-SVG-20010904/DTD/svg10.dtd">
<svg version="1.0" xmlns="http://www.w3.org/2000/svg"
 width="353.000000pt" height="353.000000pt" viewBox="0 0 353.000000 353.000000"
 preserveAspectRatio="xMidYMid meet">
<metadata>
Created by potrace 1.14, written by Peter Selinger 2001-2017
</metadata>
<g transform="translate(0.000000,353.000000) scale(0.100000,-0.100000)"
fill="#000000" stroke="none">
<path d="M1021 3070 c-102 -37 -193 -111 -242 -196 -38 -66 -33 -52 -130 -439
-44 -176 -84 -323 -88 -327 -4 -5 -36 -11 -71 -14 -129 -13 -227 -80 -282
-192 l-33 -67 -3 -350 c-1 -194 2 -356 7 -364 6 -9 38 -15 99 -19 l90 -5 4
-136 c4 -151 18 -196 77 -263 53 -60 121 -88 216 -88 99 0 166 29 222 96 60
71 73 120 73 267 l0 127 805 0 805 0 0 -125 c0 -101 4 -135 21 -179 24 -67 86
-133 152 -165 41 -20 60 -22 136 -19 77 3 94 7 136 33 108 66 145 153 145 335
l0 117 91 5 c62 4 94 10 100 19 5 8 9 164 9 348 0 375 -4 401 -69 487 -64 84
-138 123 -266 141 l-60 8 -87 346 c-48 191 -97 369 -109 395 -32 69 -133 165
-216 206 l-68 33 -705 2 c-679 2 -707 2 -759 -17z m1365 -376 c18 -9 36 -26
39 -37 3 -12 10 -38 15 -57 27 -99 120 -481 120 -492 0 -5 -358 -8 -795 -8
-437 0 -795 3 -795 7 0 6 125 516 136 554 3 9 19 24 37 33 28 14 104 16 620
16 519 0 593 -2 623 -16z m-1613 -865 c99 -50 142 -118 142 -229 0 -83 -20
-134 -72 -181 -82 -77 -206 -93 -301 -39 -92 53 -139 144 -129 248 9 86 60
158 142 200 56 29 160 30 218 1z m2229 -14 c155 -109 155 -321 0 -429 -35 -25
-55 -31 -113 -34 -114 -7 -192 33 -247 126 -23 40 -27 58 -26 122 0 109 45
182 139 227 42 20 63 23 127 21 66 -3 82 -7 120 -33z"/>
</g>
</svg>
